<mxfile host="app.diagrams.net" modified="2020-12-05T01:49:31.021Z" agent="5.0 (Windows NT 10.0; Win64; x64) AppleWebKit/537.36 (KHTML, like Gecko) Chrome/86.0.4240.198 Safari/537.36" etag="2ZBNf1TBNuBn784My0gn" version="13.10.9" type="github">
  <diagram id="NN7nGbNH8k-FjO3jeBPV" name="第 1 页">
    <mxGraphModel dx="1038" dy="548" grid="1" gridSize="10" guides="1" tooltips="1" connect="1" arrows="1" fold="1" page="1" pageScale="1" pageWidth="827" pageHeight="1169" math="0" shadow="0">
      <root>
        <mxCell id="0" />
        <mxCell id="1" parent="0" />
        <mxCell id="c2r1bAno3OWgJKnUA1oN-3" style="edgeStyle=orthogonalEdgeStyle;rounded=0;orthogonalLoop=1;jettySize=auto;html=1;" edge="1" parent="1" source="c2r1bAno3OWgJKnUA1oN-1" target="c2r1bAno3OWgJKnUA1oN-2">
          <mxGeometry relative="1" as="geometry" />
        </mxCell>
        <mxCell id="c2r1bAno3OWgJKnUA1oN-1" value="" style="rounded=0;whiteSpace=wrap;html=1;" vertex="1" parent="1">
          <mxGeometry x="250" y="90" width="120" height="60" as="geometry" />
        </mxCell>
        <mxCell id="c2r1bAno3OWgJKnUA1oN-5" style="edgeStyle=orthogonalEdgeStyle;rounded=0;orthogonalLoop=1;jettySize=auto;html=1;" edge="1" parent="1" source="c2r1bAno3OWgJKnUA1oN-2" target="c2r1bAno3OWgJKnUA1oN-4">
          <mxGeometry relative="1" as="geometry" />
        </mxCell>
        <mxCell id="c2r1bAno3OWgJKnUA1oN-2" value="" style="ellipse;whiteSpace=wrap;html=1;" vertex="1" parent="1">
          <mxGeometry x="250" y="230" width="120" height="80" as="geometry" />
        </mxCell>
        <mxCell id="c2r1bAno3OWgJKnUA1oN-7" style="edgeStyle=orthogonalEdgeStyle;rounded=0;orthogonalLoop=1;jettySize=auto;html=1;entryX=0.66;entryY=1.033;entryDx=0;entryDy=0;entryPerimeter=0;" edge="1" parent="1" source="c2r1bAno3OWgJKnUA1oN-4" target="c2r1bAno3OWgJKnUA1oN-6">
          <mxGeometry relative="1" as="geometry" />
        </mxCell>
        <mxCell id="c2r1bAno3OWgJKnUA1oN-4" value="" style="shape=process;whiteSpace=wrap;html=1;backgroundOutline=1;" vertex="1" parent="1">
          <mxGeometry x="510" y="240" width="120" height="60" as="geometry" />
        </mxCell>
        <mxCell id="c2r1bAno3OWgJKnUA1oN-8" style="edgeStyle=orthogonalEdgeStyle;rounded=0;orthogonalLoop=1;jettySize=auto;html=1;" edge="1" parent="1" source="c2r1bAno3OWgJKnUA1oN-6">
          <mxGeometry relative="1" as="geometry">
            <mxPoint x="380" y="110" as="targetPoint" />
          </mxGeometry>
        </mxCell>
        <mxCell id="c2r1bAno3OWgJKnUA1oN-6" value="" style="shape=cylinder3;whiteSpace=wrap;html=1;boundedLbl=1;backgroundOutline=1;size=15;" vertex="1" parent="1">
          <mxGeometry x="540" y="70" width="50" height="80" as="geometry" />
        </mxCell>
      </root>
    </mxGraphModel>
  </diagram>
</mxfile>
